<svg width="100%" height="100%" id="svg" viewBox="0 0 1440 690" xmlns="http://www.w3.org/2000/svg" class="transition duration-300 ease-in-out delay-150"><defs><linearGradient id="gradient" x1="0%" y1="50%" x2="100%" y2="50%"><stop offset="5%" stop-color="#62542c"></stop><stop offset="95%" stop-color="#ab9d74"></stop></linearGradient></defs><path d="M 0,700 C 0,700 0,140 0,140 C 26.31263898799633,133.86143278739476 52.62527797599266,127.72286557478954 81,126 C 109.37472202400734,124.27713442521046 139.81152708402564,126.96997048823661 167,136 C 194.18847291597436,145.0300295117634 218.12861368790487,160.397252472264 248,163 C 277.8713863120951,165.602747527736 313.674018164355,155.44101962270744 342,160 C 370.325981835645,164.55898037729256 391.17531365467516,183.8386690369062 415,167 C 438.82468634532484,150.1613309630938 465.6247272169445,97.20430422966771 496,91 C 526.3752727830555,84.79569577033229 560.3257774775465,125.34411404442295 590,144 C 619.6742225224535,162.65588595557705 645.0721628728697,159.41923959264042 674,163 C 702.9278371271303,166.58076040735958 735.3855710309745,176.9789275850153 763,168 C 790.6144289690255,159.0210724149847 813.3855530032324,130.66505006729832 839,131 C 864.6144469967676,131.33494993270168 893.0722169560955,160.36087214579138 924,172 C 954.9277830439045,183.63912785420862 988.3255791723861,177.8914613495363 1013,160 C 1037.6744208276139,142.1085386504637 1053.6254663543607,112.07328245606348 1087,104 C 1120.3745336456393,95.92671754393652 1171.172555410171,109.81540882620978 1199,110 C 1226.827444589829,110.18459117379022 1231.6843120049539,96.66508223909737 1259,105 C 1286.3156879950461,113.33491776090263 1336.090196570013,143.52426221740075 1370,153 C 1403.909803429987,162.47573778259925 1421.9549017149934,151.23786889129963 1440,140 C 1440,140 1440,700 1440,700 Z" stroke="none" stroke-width="0" fill="url(#gradient)" fill-opacity="0.265" class="transition-all duration-300 ease-in-out delay-150 path-0"></path><defs><linearGradient id="gradient" x1="0%" y1="50%" x2="100%" y2="50%"><stop offset="5%" stop-color="#62542c"></stop><stop offset="95%" stop-color="#ab9d74"></stop></linearGradient></defs><path d="M 0,700 C 0,700 0,280 0,280 C 33.826899401371165,266.2155931383088 67.65379880274233,252.43118627661758 97,243 C 126.34620119725767,233.56881372338242 151.21170419040183,228.49084803183848 174,245 C 196.78829580959817,261.5091519681615 217.49938443565026,299.6054215960285 248,311 C 278.50061556434974,322.3945784039715 318.79075806699717,307.0874655840476 345,307 C 371.20924193300283,306.9125344159524 383.337583296361,322.0447160677811 408,323 C 432.662416703639,323.9552839322189 469.85890874755864,310.7336701448279 506,310 C 542.1410912524414,309.2663298551721 577.2267817134045,321.0206033529074 607,303 C 636.7732182865955,284.9793966470926 661.2339643988234,237.18391644354247 688,228 C 714.7660356011766,218.81608355645753 743.8373606913013,248.24373087292258 766,258 C 788.1626393086987,267.7562691270774 803.4165928359705,257.84116006476717 835,259 C 866.5834071640295,260.15883993523283 914.4962679648163,272.39162886800864 944,266 C 973.5037320351837,259.60837113199136 984.5983353047643,234.5923244631983 1008,240 C 1031.4016646952357,245.4076755368017 1067.1103908161267,281.23907327919824 1096,294 C 1124.8896091838733,306.76092672080176 1146.9601014307289,296.45138242000866 1176,284 C 1205.0398985692711,271.54861757999134 1241.0492034609576,256.9553970407669 1273,257 C 1304.9507965390424,257.0446029592331 1332.8430847254406,271.72702941692376 1360,278 C 1387.1569152745594,284.27297058307624 1413.5784576372798,282.1364852915381 1440,280 C 1440,280 1440,700 1440,700 Z" stroke="none" stroke-width="0" fill="url(#gradient)" fill-opacity="0.4" class="transition-all duration-300 ease-in-out delay-150 path-1"></path><defs><linearGradient id="gradient" x1="0%" y1="50%" x2="100%" y2="50%"><stop offset="5%" stop-color="#62542c"></stop><stop offset="95%" stop-color="#ab9d74"></stop></linearGradient></defs><path d="M 0,700 C 0,700 0,420 0,420 C 24.315324432090144,406.5231882763495 48.63064886418029,393.046376552699 77,384 C 105.36935113581971,374.953623447301 137.79272897536902,370.33768206555357 172,377 C 206.20727102463098,383.66231793444643 242.19843523434355,401.6028951850868 269,420 C 295.80156476565645,438.3971048149132 313.4135300872568,457.2507371940991 341,445 C 368.5864699127432,432.7492628059009 406.1474444166291,389.3941560385167 435,393 C 463.8525555833709,396.6058439614833 483.99669224622653,447.1726386518342 511,471 C 538.0033077537735,494.8273613481658 571.8657865984645,491.91528935414675 596,458 C 620.1342134015355,424.08471064585325 634.5401613599157,359.1662039315787 664,369 C 693.4598386400843,378.8337960684213 737.9735679618726,463.4198949195381 767,471 C 796.0264320381274,478.5801050804619 809.565566792594,409.15421639026886 831,384 C 852.434433207406,358.84578360973114 881.764164867752,377.9632395193865 917,397 C 952.235835132248,416.0367604806135 993.3777737363982,434.9928255321851 1023,433 C 1052.6222262636018,431.0071744678149 1070.7247401866557,408.065458351873 1093,418 C 1115.2752598133443,427.934541648127 1141.7232655169792,470.74534106032274 1171,465 C 1200.2767344830208,459.25465893967726 1232.3821977454286,404.9531774068362 1267,396 C 1301.6178022545714,387.0468225931638 1338.747943501306,423.4419493123325 1368,435 C 1397.252056498694,446.5580506876675 1418.626028249347,433.2790253438337 1440,420 C 1440,420 1440,700 1440,700 Z" stroke="none" stroke-width="0" fill="url(#gradient)" fill-opacity="0.53" class="transition-all duration-300 ease-in-out delay-150 path-2"></path><defs><linearGradient id="gradient" x1="0%" y1="50%" x2="100%" y2="50%"><stop offset="5%" stop-color="#62542c"></stop><stop offset="95%" stop-color="#ab9d74"></stop></linearGradient></defs><path d="M 0,700 C 0,700 0,560 0,560 C 32.91647224546402,556.2342687057691 65.83294449092804,552.4685374115381 89,556 C 112.16705550907196,559.5314625884619 125.58469428175187,570.3601190596164 154,571 C 182.41530571824813,571.6398809403836 225.82827838206447,562.0909863499959 263,572 C 300.17172161793553,581.9090136500041 331.1021921899902,611.2759355403999 353,607 C 374.8978078100098,602.7240644596001 387.76295285797477,564.8052714884042 414,545 C 440.23704714202523,525.1947285115958 479.8459963781107,523.502978505983 514,538 C 548.1540036218893,552.497021494017 576.8530616295822,583.1828144876634 598,598 C 619.1469383704178,612.8171855123366 632.7417571035609,611.7657635433628 662,583 C 691.2582428964391,554.2342364566372 736.1799099561744,497.75413133888503 764,508 C 791.8200900438256,518.245868661115 802.5386030717419,595.2177111010969 832,601 C 861.4613969282581,606.7822888989031 909.6656777568578,541.3750242567271 942,538 C 974.3343222431422,534.6249757432729 990.7986859008272,593.2821918719947 1013,589 C 1035.2013140991728,584.7178081280053 1063.1395786398336,517.4962082552943 1090,510 C 1116.8604213601664,502.5037917447057 1142.6429995398382,554.7329751068283 1173,560 C 1203.3570004601618,565.2670248931717 1238.2884232008128,523.5718913173924 1266,531 C 1293.7115767991872,538.4281086826076 1314.2033076569107,594.9794596236021 1342,608 C 1369.7966923430893,621.0205403763979 1404.8983461715447,590.510270188199 1440,560 C 1440,560 1440,700 1440,700 Z" stroke="none" stroke-width="0" fill="url(#gradient)" fill-opacity="1" class="transition-all duration-300 ease-in-out delay-150 path-3"></path></svg>